<?xml version="1.0" encoding="UTF-8" standalone="no"?>
<svg
   version="1.1"
   id="Layer_1"
   x="0px"
   y="0px"
   width="100%"
   viewBox="0 0 770 509"
   enable-background="new 0 0 770 509"
   xml:space="preserve"
   sodipodi:docname="physhpc-2024-logo.svg"
   inkscape:version="1.3.2 (091e20ef0f, 2023-11-25, custom)"
   xmlns:inkscape="http://www.inkscape.org/namespaces/inkscape"
   xmlns:sodipodi="http://sodipodi.sourceforge.net/DTD/sodipodi-0.dtd"
   xmlns="http://www.w3.org/2000/svg"
   xmlns:svg="http://www.w3.org/2000/svg"><defs
   id="defs20" /><sodipodi:namedview
   id="namedview20"
   pagecolor="#ffffff"
   bordercolor="#000000"
   borderopacity="0.25"
   inkscape:showpageshadow="2"
   inkscape:pageopacity="0.0"
   inkscape:pagecheckerboard="0"
   inkscape:deskcolor="#d1d1d1"
   inkscape:zoom="1.4896104"
   inkscape:cx="385"
   inkscape:cy="254.42895"
   inkscape:window-width="1920"
   inkscape:window-height="1149"
   inkscape:window-x="0"
   inkscape:window-y="27"
   inkscape:window-maximized="1"
   inkscape:current-layer="Layer_1" />

<path
   fill="#008000"
   opacity="1.000000"
   stroke="none"
   d=" M340.531342,1.000000   C341.000000,139.470428 341.000000,277.940857 341.000000,416.705475   C288.015198,416.705475 235.282440,416.705475 182.000000,416.705475   C182.000000,278.461548 182.000000,140.199432 182.000000,1.468657   C234.687561,1.000000 287.375122,1.000000 340.531342,1.000000  z"
   id="path2" />
<path
   fill="#0000FF"
   opacity="1.000000"
   stroke="none"
   d=" M1.000000,94.468658   C53.442417,94.000000 105.884834,94.000000 159.000000,94.000000   C159.000000,232.465332 159.000000,370.764008 159.000000,509.531342   C106.373497,510.000000 53.746998,510.000000 1.000000,510.000000   C1.000000,371.645782 1.000000,233.291550 1.000000,94.468658  z"
   id="path3" />
<path
   fill="#0000FF"
   opacity="1.000000"
   stroke="none"
   d=" M771.000000,86.533882   C764.687927,102.675667 752.286926,108.643181 736.317261,107.830673   C730.445801,107.531944 724.590942,105.576363 718.882874,103.862457   C715.044861,102.710052 711.982361,101.969200 710.004761,106.575874   C709.622925,107.465279 707.892944,107.775909 706.115295,108.702530   C704.364502,96.817947 702.736389,85.765785 701.080933,74.528267   C704.181030,73.144775 705.819763,74.118553 707.202393,77.367805   C710.698181,85.583145 715.425720,93.028648 723.321960,97.775986   C730.333130,101.991226 741.110413,102.849022 748.798584,97.643005   C755.963318,92.791435 757.216675,79.377945 750.296570,73.058685   C744.104980,67.404747 736.993835,62.671707 729.932251,58.080219   C722.501099,53.248459 714.546997,49.349976 709.655701,41.318127   C701.295410,27.589888 706.413635,6.464531 724.883789,1.353982   C730.354919,1.000000 735.709900,1.000000 741.663330,1.365911   C745.728210,2.824453 749.262695,3.741546 752.643799,5.054007   C756.893616,6.703703 759.320374,5.570203 760.000000,1.000000   C761.388916,1.000000 762.777771,1.000000 764.583374,1.446744   C766.003967,12.548958 767.007874,23.204428 768.016357,33.908134   C763.226196,33.909134 763.209229,33.914719 761.984741,30.197195   C758.533752,19.720470 752.178467,12.091312 741.295166,8.751161   C733.817993,6.456360 724.576477,9.378869 721.257751,15.238689   C718.366394,20.343817 719.835938,28.105650 725.885620,33.158772   C731.941406,38.216930 738.602051,42.666496 745.411804,46.679951   C756.143982,53.005157 766.197510,59.784317 771.000000,72.000000   C771.000000,76.689255 771.000000,81.378510 771.000000,86.533882  z"
   id="path4" />
<path
   fill="#FFFFFF"
   opacity="1.000000"
   stroke="none"
   d=" M771.000000,71.531342   C766.197510,59.784317 756.143982,53.005157 745.411804,46.679951   C738.602051,42.666496 731.941406,38.216930 725.885620,33.158772   C719.835938,28.105650 718.366394,20.343817 721.257751,15.238689   C724.576477,9.378869 733.817993,6.456360 741.295166,8.751161   C752.178467,12.091312 758.533752,19.720470 761.984741,30.197195   C763.209229,33.914719 763.226196,33.909134 768.016357,33.908134   C767.007874,23.204428 766.003967,12.548958 765.000000,1.446744   C766.988586,1.000000 768.977112,1.000000 771.000000,1.000000   C771.000000,24.354218 771.000000,47.708450 771.000000,71.531342  z"
   id="path5" />
<path
   fill="#FFFFFF"
   opacity="1.000000"
   stroke="none"
   d=" M759.532043,1.000000   C759.320374,5.570203 756.893616,6.703703 752.643799,5.054007   C749.262695,3.741546 745.728210,2.824453 742.130859,1.365911   C747.688049,1.000000 753.376038,1.000000 759.532043,1.000000  z"
   id="path6" />
<path
   fill="#008000"
   opacity="1.000000"
   stroke="none"
   d=" M446.195129,287.998474   C452.611481,288.607086 452.810059,288.762207 452.602875,292.838562   C434.651642,292.838562 416.691162,292.838562 398.421356,292.838562   C397.734344,290.675690 397.175262,288.787476 400.780914,288.926117   C401.515991,288.954376 402.247986,288.210846 403.027832,288.054260   C414.026154,285.845642 414.999878,284.690460 414.999939,273.674225   C415.000061,244.520920 415.000000,215.367599 415.000000,186.214294   C415.000000,173.530075 413.106323,171.428009 400.381561,170.002945   C399.745941,169.931778 399.104034,169.917053 398.238831,169.861511   C398.238831,168.311768 398.238831,166.895142 398.238831,165.379074   C398.696533,165.258911 399.161133,165.030853 399.626068,165.030197   C415.951813,165.007339 432.277924,165.059280 448.603088,164.957855   C452.010773,164.936691 453.693329,165.912521 452.692078,169.841980   C450.042694,170.224716 447.329315,170.599609 444.621582,171.011597   C439.760437,171.751236 436.150909,175.608948 436.069641,181.188065   C435.863922,195.305145 436.001373,209.427216 436.001373,223.772095   C455.098267,223.772095 473.827209,223.772095 492.003387,223.772095   C492.003387,208.762177 491.927948,193.912994 492.043579,179.065338   C492.084961,173.749191 488.435669,172.204575 484.442200,171.068375   C481.827179,170.324356 479.052124,170.142761 476.193146,169.684296   C476.193146,168.197342 476.193146,166.787888 476.193146,165.198502   C494.140778,165.198502 511.897949,165.198502 529.826172,165.198502   C529.826172,166.675629 529.826172,167.958557 529.826172,169.566803   C528.002014,170.015793 526.031433,170.651718 524.010864,170.971359   C516.304016,172.190567 514.145264,174.311096 514.034485,182.065292   C513.614441,211.469421 513.290649,240.875229 513.057373,270.281403   C513.030334,273.685272 513.536865,277.150146 514.249390,280.490021   C515.365051,285.719513 519.346497,287.477478 524.217834,288.033661   C526.964478,288.347290 530.563721,287.997040 529.849060,292.861450   C511.897675,292.861450 494.270264,292.861450 476.532104,292.861450   C474.501770,288.366333 478.556519,288.474823 480.611237,288.115906   C490.226868,286.436188 492.782623,283.990234 492.944763,274.098877   C493.165680,260.621674 492.999817,247.138138 492.999817,233.328949   C474.107635,233.328949 455.377380,233.328949 436.000000,233.328949   C436.000000,237.922852 436.000000,242.679352 436.000000,247.435837   C436.000000,256.431702 435.999298,265.427582 436.000183,274.423462   C436.001068,283.122955 437.550110,285.274811 446.195129,287.998474  z"
   id="path7" />
<path
   fill="#008000"
   opacity="1.000000"
   stroke="none"
   d=" M638.000000,200.963379   C637.367554,218.923050 626.460693,232.276794 608.063049,235.781097   C596.833557,237.920074 585.195190,237.912460 573.000000,238.930786   C573.000000,245.210892 573.000000,252.293457 573.000000,259.376038   C573.000000,264.870819 572.977356,270.365753 573.005188,275.860382   C573.048950,284.499237 576.915833,288.024628 587.391052,288.986969   C588.373779,289.077240 589.372009,288.998962 590.507629,288.998962   C591.394226,291.464661 591.607117,293.062012 588.105347,293.042633   C570.965454,292.947754 553.824707,292.999634 536.598572,292.999634   C534.559937,288.501556 538.473267,288.216675 540.542603,288.151276   C548.437866,287.901581 552.187683,283.464020 552.106323,274.686035   C551.828735,244.716980 552.000061,214.743774 552.000000,184.772156   C552.000000,174.162277 551.396484,173.441971 540.697205,170.929092   C539.297302,170.600311 537.950500,170.045364 536.200989,169.471024   C536.139648,168.397720 536.057617,166.963165 535.973389,165.488800   C536.623596,165.295547 537.085388,165.039001 537.547546,165.038223   C553.532227,165.010941 569.527527,164.651260 585.498047,165.123093   C596.669434,165.453140 607.872131,166.818680 618.334839,171.174805   C629.378784,175.772919 638.534546,186.806519 638.000000,200.963379  M613.074402,188.535980   C610.734436,182.718307 606.274963,179.292694 600.604004,176.962402   C593.448547,174.022125 586.025513,173.862045 578.477966,173.937057   C574.412476,173.977478 572.917114,175.644409 572.954834,179.620850   C573.076294,192.425858 573.000000,205.232712 573.000000,218.038864   C573.000000,221.636444 573.000000,225.234009 573.000000,228.999832   C579.400330,228.999832 585.258301,229.492706 590.998108,228.879471   C598.792236,228.046738 606.223816,225.764450 611.015076,218.761108   C617.425293,209.391266 617.428284,199.403427 613.074402,188.535980  z"
   id="path8" />
<path
   fill="#008000"
   opacity="1.000000"
   stroke="none"
   d=" M652.253113,198.348923   C662.198730,178.660797 677.937073,167.656281 699.178528,163.943954   C713.425781,161.453979 727.134644,163.538269 740.570557,168.083511   C745.602173,169.785645 749.402771,169.159241 752.726746,164.917694   C753.514954,163.911880 755.307495,163.027496 756.478821,163.195786   C757.435242,163.333221 758.180908,165.104248 758.956116,166.196365   C759.115540,166.420975 758.997437,166.846680 758.997498,167.179733   C758.998535,180.246292 758.998352,193.312836 758.998352,206.532013   C754.793274,207.319077 754.667542,207.355927 753.053284,201.847717   C749.970215,191.327545 744.279419,182.859970 734.693726,177.162918   C725.038879,171.424820 714.652771,170.182953 703.957825,172.598145   C682.104980,177.533066 672.236328,197.228256 669.911133,215.498154   C668.041199,230.191055 668.867676,244.501068 674.036011,258.390289   C680.115723,274.728760 691.683777,283.876831 709.474365,285.907806   C731.012451,288.366638 743.386414,281.300598 758.546265,267.041473   C759.921997,268.594543 761.306396,270.157379 762.560913,271.573639   C753.459839,283.857208 740.832275,291.457001 725.942017,294.414551   C697.121582,300.139099 667.220337,292.290161 652.422058,262.645325   C644.653381,247.082489 644.329895,230.192291 647.417114,213.320602   C648.331604,208.323257 650.463379,203.548660 652.253113,198.348923  z"
   id="path9" />
<path
   fill="#0000FF"
   opacity="1.000000"
   stroke="none"
   d=" M548.128296,106.000000   C545.990784,106.000000 544.334229,106.000000 541.118958,106.000000   C542.367615,104.177628 543.104553,102.152176 543.857910,102.146034   C554.030334,102.063065 555.570312,94.831673 555.889587,87.253548   C556.308167,77.319427 555.992249,67.354347 555.992249,57.555088   C555.284302,57.273796 554.993652,57.057495 554.702759,57.057167   C540.043518,57.040718 525.384216,57.042713 510.000000,57.042713   C510.000000,63.508636 509.999969,69.926979 510.000000,76.345322   C510.000000,81.511322 509.921478,86.678833 510.020355,91.842941   C510.139435,98.062218 511.934174,99.763817 518.354065,101.092552   C520.488586,101.534332 524.168945,101.283264 522.716736,105.782684   C508.702423,105.782684 494.589569,105.782684 480.476715,105.782684   C480.163025,105.464005 479.849335,105.145332 479.535645,104.826653   C480.552155,103.879028 481.420349,102.398575 482.608551,102.067879   C492.302155,99.369934 492.999969,98.532921 493.000000,88.154991   C493.000031,64.658012 493.004395,41.161026 492.997437,17.664045   C492.995270,10.347999 490.265045,7.592434 482.902161,6.898922   C481.699249,6.785620 480.621460,5.343673 479.485840,4.515823   C479.742889,4.011405 479.999969,3.506986 480.257019,3.002568   C493.718933,3.002568 507.181519,2.947681 520.641235,3.116817   C521.616455,3.129071 522.571106,4.770687 524.252991,6.312757   C518.196167,7.628468 512.616699,6.569855 510.783173,12.718966   C510.511292,13.630859 510.039185,14.548192 510.034821,15.464786   C509.982422,26.441870 510.000946,37.419296 510.000946,48.697632   C525.297729,48.697632 540.363953,48.697632 554.979980,48.697632   C554.979980,36.872944 555.242432,25.016943 554.835815,13.183939   C554.695862,9.111459 551.008301,7.434836 547.146240,7.028329   C545.669373,6.872877 544.162537,7.003035 542.310120,7.003035   C542.233459,5.709517 542.163391,4.526463 542.082458,3.160700   C556.760681,3.160700 571.052246,3.160700 587.171021,3.160700   C585.444031,5.001658 584.602539,6.748413 583.556030,6.881258   C574.321594,8.053523 572.101440,10.019366 572.047058,19.061077   C571.906799,42.390572 571.900940,65.722107 572.051758,89.051468   C572.107727,97.712646 573.979736,99.444122 583.373535,102.066093   C584.566467,102.399063 585.443604,103.863487 586.467041,104.803726   C586.158813,105.202484 585.850586,105.601242 585.542358,106.000000   C573.231323,106.000000 560.920227,106.000000 548.128296,106.000000  z"
   id="path10" />
<path
   fill="#0000FF"
   opacity="1.000000"
   stroke="none"
   d=" M434.874512,106.000000   C422.082367,106.000000 409.771942,106.000000 397.461487,106.000000   C397.152435,105.603157 396.843353,105.206322 396.534271,104.809479   C397.555573,103.867371 398.430084,102.397949 399.621277,102.066429   C409.300171,99.372810 409.999969,98.530731 410.000000,88.143578   C410.000031,65.481583 409.866638,42.818459 410.058868,20.158096   C410.148743,9.560247 408.513947,7.700554 397.394440,6.769680   C396.519470,4.299658 396.714050,2.924864 400.037476,2.949239   C415.700104,3.064114 431.417114,2.213351 447.009460,3.266321   C458.112701,4.016135 469.619263,6.775012 475.769257,17.674652   C483.922607,32.124832 478.037201,51.184422 460.792694,57.799873   C455.172760,59.955837 448.770691,60.305634 442.669678,60.901932   C437.725525,61.385170 432.696472,61.000000 427.142059,61.000000   C427.142059,72.199234 426.727631,83.298225 427.318817,94.343376   C427.609711,99.777473 431.166321,101.341148 440.760529,102.312187   C440.760529,103.378311 440.760529,104.470085 440.760529,106.000000   C438.955475,106.000000 437.155853,106.000000 434.874512,106.000000  M427.000000,32.500061   C427.000000,39.580929 427.000000,46.661797 427.000000,53.998978   C431.858673,53.998978 436.239990,54.552578 440.428711,53.889435   C450.714661,52.260998 457.721436,49.678192 460.515594,38.826790   C461.439911,35.237152 461.794098,30.995464 460.771088,27.536282   C459.462646,23.111982 457.312378,18.325974 454.066650,15.219446   C448.300507,9.700677 440.131592,9.860708 432.642517,9.093491   C428.797821,8.699622 426.680420,10.688984 426.926147,15.057627   C427.233521,20.522602 427.000000,26.018002 427.000000,32.500061  z"
   id="path11" />
<path
   fill="#0000FF"
   opacity="1.000000"
   stroke="none"
   d=" M686.249390,13.253012   C679.001709,23.633293 672.007263,33.757320 665.017517,43.884602   C664.651550,44.414730 664.391663,45.030502 663.971313,45.508770   C656.704773,53.776920 653.421021,63.196709 654.907349,74.311050   C655.476379,78.566246 654.999939,82.961250 655.000000,87.292549   C655.000122,98.822815 656.835327,100.798965 668.158447,102.096588   C669.351624,102.233330 670.392151,103.702217 671.503540,104.553055   C671.232483,104.966057 670.961365,105.379059 670.690247,105.792061   C654.925781,105.792061 639.161377,105.792061 623.202637,105.792061   C623.202637,104.572548 623.202637,103.496956 623.202637,102.322060   C626.040100,101.863693 628.774414,101.558205 631.442627,100.958733   C635.342285,100.082611 637.920166,97.713959 637.962830,93.541451   C638.071655,82.880913 638.042175,72.218102 637.938416,61.557465   C637.927002,60.388271 637.268860,59.094639 636.581238,58.082516   C627.306763,44.430645 618.316589,30.563150 608.465454,17.337927   C605.114624,12.839457 601.777832,7.001019 594.568726,6.855812   C593.880615,6.841951 593.230347,4.947692 591.956665,3.000000   C602.213989,3.000000 611.318237,2.999954 620.422546,3.000019   C624.920410,3.000051 629.427673,2.840738 633.910156,3.103653   C635.155090,3.176678 636.326599,4.501863 637.531799,5.252582   C637.308472,5.740612 637.085205,6.228642 636.861938,6.716672   C635.588074,6.811102 634.315247,6.966120 633.040100,6.989785   C626.492371,7.111297 624.761902,9.287459 628.078674,14.724259   C635.397217,26.721039 643.281189,38.372929 651.349182,50.804539   C659.027039,38.389294 666.381042,26.838205 673.359375,15.064463   C676.658997,9.497362 674.983521,7.161299 668.331177,6.998184   C665.991333,6.940812 662.808716,7.807312 664.368164,3.210878   C675.753662,3.210878 687.186096,3.210878 698.805664,3.210878   C698.805664,4.432311 698.805664,5.513998 698.805664,6.595685   C698.500549,6.230215 698.195496,5.864745 697.890381,5.499275   C694.094788,7.998663 690.299255,10.498052 686.249390,13.253012  z"
   id="path12" />
<path
   fill="#4D4D4D"
   opacity="1.000000"
   stroke="none"
   d=" M614.215332,350.285522   C621.130432,338.793335 637.318604,337.537292 645.208374,347.780853   C655.874084,361.628632 656.759949,386.515381 647.073608,401.690643   C637.750244,416.297180 619.888855,414.522430 612.889404,399.471558   C605.242554,383.028320 605.720764,366.692291 614.215332,350.285522  M624.000000,360.740295   C624.000000,370.569397 623.795593,380.404663 624.091309,390.224854   C624.227295,394.739746 625.013184,399.313599 626.182129,403.679260   C626.635193,405.371185 628.945374,407.653381 630.437195,407.674042   C631.932190,407.694794 634.133484,405.499115 634.816650,403.791382   C635.812683,401.301666 635.981628,398.386749 636.060486,395.640411   C636.431519,382.723907 636.774170,369.803528 636.829041,356.883301   C636.841064,354.053192 636.018433,351.046661 634.855225,348.445587   C634.086853,346.727539 632.034668,344.509766 630.536743,344.494202   C629.042175,344.478638 626.727600,346.669098 626.176025,348.352295   C624.976807,352.011780 624.671326,355.964142 624.000000,360.740295  z"
   id="path13" />
<path
   fill="#4D4D4D"
   opacity="1.000000"
   stroke="none"
   d=" M747.000000,362.999939   C747.000000,370.132874 747.000000,376.765869 747.000000,383.739838   C749.322510,383.893738 751.398865,384.031342 753.730347,384.185822   C753.730347,388.020142 753.730347,391.755615 753.730347,395.948517   C751.581116,395.948517 749.516296,395.948517 747.170105,395.948517   C747.170105,400.672394 747.170105,404.954132 747.170105,409.617920   C742.176025,409.617920 737.447205,409.617920 732.239502,409.617920   C732.239502,405.445038 732.239502,401.047455 732.239502,396.185425   C723.725403,396.185425 715.662842,396.185425 707.250244,396.185425   C706.843994,389.222412 706.369507,383.120087 711.026306,377.255951   C719.608582,366.448761 727.517090,355.101990 735.579956,343.889191   C738.533813,339.781403 742.580627,341.231171 747.000000,341.047913   C747.000000,348.303375 747.000000,355.401703 747.000000,362.999939  M715.935669,379.403137   C715.026062,380.788177 714.116516,382.173248 713.062927,383.777527   C719.709412,383.777527 725.638550,383.777527 731.746338,383.777527   C731.746338,374.919189 731.746338,366.284149 731.746338,357.265198   C726.332458,364.649170 721.191162,371.661377 715.935669,379.403137  z"
   id="path14" />
<path
   fill="#4D4D4D"
   opacity="1.000000"
   stroke="none"
   d=" M674.749634,353.002319   C668.792969,352.260834 666.192200,356.393127 663.019775,359.705597   C661.892273,360.882812 660.301636,361.616425 658.507141,362.041382   C660.624084,354.797424 663.951355,348.685883 669.575256,343.852783   C674.350891,339.748657 686.764893,340.081940 691.583679,343.291351   C698.033936,347.587341 700.944885,356.579956 699.547607,363.100464   C698.109924,369.808929 694.819214,375.096100 689.878357,379.684143   C684.519836,384.659912 679.404297,389.897339 673.251465,395.934479   C680.623108,395.934479 686.888489,396.454865 692.989563,395.680511   C695.458862,395.367065 697.575989,392.236084 699.840515,390.371613   C700.917419,389.484924 701.964111,388.561646 703.024536,387.654907   C703.350586,387.994049 703.676636,388.333191 704.002747,388.672333   C702.524536,395.624451 701.046387,402.576599 699.516418,409.772339   C685.531555,409.772339 671.421875,409.772339 656.144165,409.772339   C657.434875,407.506653 658.177795,405.642151 659.391724,404.164581   C666.155212,395.932617 673.340881,388.025391 679.721863,379.512177   C682.332336,376.029572 684.046021,371.438507 684.802368,367.112915   C685.748474,361.702393 683.814087,354.814514 674.749634,353.002319  z"
   id="path15" />
<path
   fill="#4D4D4D"
   opacity="1.000000"
   stroke="none"
   d=" M591.773621,377.725861   C585.777771,383.715302 580.030334,389.448364 573.483643,395.978668   C580.490784,395.978668 586.546326,396.196472 592.575745,395.893921   C595.986389,395.722809 598.555054,393.819336 599.959167,390.378357   C600.428467,389.228546 602.039062,388.544556 603.127930,387.647644   C603.439148,388.011139 603.750305,388.374603 604.061523,388.738098   C602.709290,394.729126 601.495850,400.757660 599.895935,406.681824   C599.545898,407.977875 597.833557,409.835785 596.721985,409.854553   C583.594055,410.076111 570.461121,409.997040 555.925903,409.997040   C557.527283,407.363861 558.413818,405.427704 559.720825,403.837189   C566.474731,395.618530 573.789368,387.816040 580.008362,379.217407   C584.497681,373.010315 587.482361,365.938263 582.641479,357.983032   C579.171936,352.281219 570.332275,351.531677 566.271790,356.023071   C560.840393,362.030853 560.509583,361.731781 558.093750,361.609772   C560.181946,354.925232 563.627808,349.259918 568.855835,344.578644   C575.876892,338.291840 594.509460,338.705688 598.657166,352.475098   C601.459045,361.776794 599.173340,370.448059 591.773621,377.725861  z"
   id="path16" />
<path
   fill="#FFFFFF"
   opacity="1.000000"
   stroke="none"
   d=" M613.348511,188.821640   C617.428284,199.403427 617.425293,209.391266 611.015076,218.761108   C606.223816,225.764450 598.792236,228.046738 590.998108,228.879471   C585.258301,229.492706 579.400330,228.999832 573.000000,228.999832   C573.000000,225.234009 573.000000,221.636444 573.000000,218.038864   C573.000000,205.232712 573.076294,192.425858 572.954834,179.620850   C572.917114,175.644409 574.412476,173.977478 578.477966,173.937057   C586.025513,173.862045 593.448547,174.022125 600.604004,176.962402   C606.274963,179.292694 610.734436,182.718307 613.348511,188.821640  z"
   id="path17" />
<path
   fill="#FFFFFF"
   opacity="1.000000"
   stroke="none"
   d=" M427.000000,32.000164   C427.000000,26.018002 427.233521,20.522602 426.926147,15.057627   C426.680420,10.688984 428.797821,8.699622 432.642517,9.093491   C440.131592,9.860708 448.300507,9.700677 454.066650,15.219446   C457.312378,18.325974 459.462646,23.111982 460.771088,27.536282   C461.794098,30.995464 461.439911,35.237152 460.515594,38.826790   C457.721436,49.678192 450.714661,52.260998 440.428711,53.889435   C436.239990,54.552578 431.858673,53.998978 427.000000,53.998978   C427.000000,46.661797 427.000000,39.580929 427.000000,32.000164  z"
   id="path18" />
<path
   fill="#FFFFFF"
   opacity="1.000000"
   stroke="none"
   d=" M624.000244,360.268555   C624.671326,355.964142 624.976807,352.011780 626.176025,348.352295   C626.727600,346.669098 629.042175,344.478638 630.536743,344.494202   C632.034668,344.509766 634.086853,346.727539 634.855225,348.445587   C636.018433,351.046661 636.841064,354.053192 636.829041,356.883301   C636.774170,369.803528 636.431519,382.723907 636.060486,395.640411   C635.981628,398.386749 635.812683,401.301666 634.816650,403.791382   C634.133484,405.499115 631.932190,407.694794 630.437195,407.674042   C628.945374,407.653381 626.635193,405.371185 626.182129,403.679260   C625.013184,399.313599 624.227295,394.739746 624.091309,390.224854   C623.795593,380.404663 624.000000,370.569397 624.000244,360.268555  z"
   id="path19" />
<path
   fill="#FFFFFF"
   opacity="1.000000"
   stroke="none"
   d=" M715.992798,379.038361   C721.191162,371.661377 726.332458,364.649170 731.746338,357.265198   C731.746338,366.284149 731.746338,374.919189 731.746338,383.777527   C725.638550,383.777527 719.709412,383.777527 713.062927,383.777527   C714.116516,382.173248 715.026062,380.788177 715.992798,379.038361  z"
   id="path20" />
</svg>
